<?xml version="1.0" encoding="UTF-8" standalone="no"?>
<!DOCTYPE svg PUBLIC "-//W3C//DTD SVG 1.1//EN"
 "http://www.w3.org/Graphics/SVG/1.1/DTD/svg11.dtd">
<!-- Generated by graphviz version 12.1.0 (20240811.2233)
 -->
<!-- Title: G Pages: 1 -->
<svg width="351pt" height="44pt"
 viewBox="0.00 0.00 351.00 44.00" xmlns="http://www.w3.org/2000/svg" xmlns:xlink="http://www.w3.org/1999/xlink">
<g id="graph0" class="graph" transform="scale(1 1) rotate(0) translate(4 40)">
<title>G</title>
<polygon fill="white" stroke="none" points="-4,4 -4,-40 347,-40 347,4 -4,4"/>
<!-- syntax -->
<g id="node1" class="node">
<title>syntax</title>
<polygon fill="none" stroke="black" stroke-dasharray="5,2" points="54,-36 0,-36 0,0 54,0 54,-36"/>
<text text-anchor="middle" x="27" y="-12.95" font-family="Times,serif" font-size="14.00">Syntax</text>
</g>
<!-- tree -->
<g id="node2" class="node">
<title>tree</title>
<polygon fill="none" stroke="black" points="196,-36 114.75,-36 114.75,0 196,0 196,-36"/>
<text text-anchor="middle" x="155.38" y="-12.95" font-family="Times,serif" font-size="14.00">Tensor Tree</text>
</g>
<!-- syntax&#45;&gt;tree -->
<g id="edge1" class="edge">
<title>syntax&#45;&gt;tree</title>
<path fill="none" stroke="black" stroke-dasharray="5,2" d="M54.49,-18C68.61,-18 86.46,-18 103.15,-18"/>
<polygon fill="black" stroke="black" points="102.95,-21.5 112.95,-18 102.95,-14.5 102.95,-21.5"/>
<text text-anchor="middle" x="84.38" y="-21.2" font-family="Times,serif" font-size="14.00">Elab</text>
</g>
<!-- tensor -->
<g id="node3" class="node">
<title>tensor</title>
<polygon fill="none" stroke="black" points="343,-36 289,-36 289,0 343,0 343,-36"/>
<text text-anchor="middle" x="316" y="-12.95" font-family="Times,serif" font-size="14.00">Tensor</text>
</g>
<!-- tree&#45;&gt;tensor -->
<g id="edge2" class="edge">
<title>tree&#45;&gt;tensor</title>
<path fill="none" stroke="black" d="M196.4,-18C221.33,-18 253.18,-18 277.59,-18"/>
<polygon fill="black" stroke="black" points="277.4,-21.5 287.4,-18 277.4,-14.5 277.4,-21.5"/>
<text text-anchor="middle" x="242.5" y="-21.2" font-family="Times,serif" font-size="14.00">Cat theory</text>
</g>
</g>
</svg>
